<svg width="32" height="32" viewBox="0 0 32 32" fill="none" xmlns="http://www.w3.org/2000/svg">
<rect width="32" height="32" rx="4" fill="#101010"/>
<path d="M21.0074 10.968V24H19.9274V21.168C19.5594 22.16 18.9434 22.92 18.0794 23.448C17.2314 23.96 16.2554 24.216 15.1514 24.216C13.5994 24.216 12.3274 23.744 11.3354 22.8C10.3594 21.84 9.87144 20.424 9.87144 18.552V10.968H10.9274V18.48C10.9274 20.032 11.3194 21.224 12.1034 22.056C12.8874 22.872 13.9514 23.28 15.2954 23.28C16.7034 23.28 17.8234 22.832 18.6554 21.936C19.5034 21.04 19.9274 19.712 19.9274 17.952V10.968H21.0074Z" fill="white"/>
<path d="M21.0074 10.968V24H19.9274V21.168C19.5594 22.16 18.9434 22.92 18.0794 23.448C17.2314 23.96 16.2554 24.216 15.1514 24.216C13.5994 24.216 12.3274 23.744 11.3354 22.8C10.3594 21.84 9.87144 20.424 9.87144 18.552V10.968H10.9274V18.48C10.9274 20.032 11.3194 21.224 12.1034 22.056C12.8874 22.872 13.9514 23.28 15.2954 23.28C16.7034 23.28 17.8234 22.832 18.6554 21.936C19.5034 21.04 19.9274 19.712 19.9274 17.952V10.968H21.0074Z" fill="url(#paint0_angular_374_1029)"/>
<path d="M21.0074 10.968V24H19.9274V21.168C19.5594 22.16 18.9434 22.92 18.0794 23.448C17.2314 23.96 16.2554 24.216 15.1514 24.216C13.5994 24.216 12.3274 23.744 11.3354 22.8C10.3594 21.84 9.87144 20.424 9.87144 18.552V10.968H10.9274V18.48C10.9274 20.032 11.3194 21.224 12.1034 22.056C12.8874 22.872 13.9514 23.28 15.2954 23.28C16.7034 23.28 17.8234 22.832 18.6554 21.936C19.5034 21.04 19.9274 19.712 19.9274 17.952V10.968H21.0074Z" fill="url(#paint1_linear_374_1029)" fill-opacity="0.49"/>
<path d="M21.0074 10.968V24H19.9274V21.168C19.5594 22.16 18.9434 22.92 18.0794 23.448C17.2314 23.96 16.2554 24.216 15.1514 24.216C13.5994 24.216 12.3274 23.744 11.3354 22.8C10.3594 21.84 9.87144 20.424 9.87144 18.552V10.968H10.9274V18.48C10.9274 20.032 11.3194 21.224 12.1034 22.056C12.8874 22.872 13.9514 23.28 15.2954 23.28C16.7034 23.28 17.8234 22.832 18.6554 21.936C19.5034 21.04 19.9274 19.712 19.9274 17.952V10.968H21.0074Z" fill="url(#paint2_linear_374_1029)"/>
<defs>
<radialGradient id="paint0_angular_374_1029" cx="0" cy="0" r="1" gradientUnits="userSpaceOnUse" gradientTransform="translate(15.7353 18.567) rotate(90) scale(19.5568 12.223)">
<stop offset="0.0915365" stop-color="#FF0000"/>
<stop offset="0.398925" stop-color="#FFC700"/>
<stop offset="0.607228" stop-color="#19DE74"/>
<stop offset="0.901028" stop-color="#00A3FF"/>
</radialGradient>
<linearGradient id="paint1_linear_374_1029" x1="8" y1="19.3968" x2="22.5074" y2="19.367" gradientUnits="userSpaceOnUse">
<stop stop-color="#FF0000"/>
<stop offset="0.37" stop-color="#FFC700"/>
<stop offset="0.695" stop-color="#19DE74"/>
<stop offset="1" stop-color="#00A3FF"/>
</linearGradient>
<linearGradient id="paint2_linear_374_1029" x1="10.8448" y1="9.57648" x2="22.1844" y2="10.5789" gradientUnits="userSpaceOnUse">
<stop stop-color="#1E6EA9"/>
<stop offset="0.520833" stop-color="#4BC270"/>
<stop offset="1" stop-color="#FFCB3C"/>
</linearGradient>
</defs>
</svg>
