<svg width="129" height="98" viewBox="0 0 129 98" fill="none" xmlns="http://www.w3.org/2000/svg">
<g clip-path="url(#clip0_313_669)">
<path opacity="0.3" fill-rule="evenodd" clip-rule="evenodd" d="M103.659 63.0744C103.659 59.9616 106.917 57.9225 109.717 59.283L123.865 66.1583C124.965 66.6927 126.271 66.6356 127.317 66.0073C128.363 65.3791 129 64.2694 129 63.0744V13.819C129 12.624 128.363 11.5143 127.317 10.886C126.271 10.2578 124.965 10.2007 123.865 10.7351L109.717 17.6104C106.917 18.9709 103.659 16.9318 103.659 13.819C103.659 6.47417 97.5328 0.52002 89.9754 0.52002H34.2267C26.6694 0.52002 20.543 6.47417 20.543 13.819V63.0744C20.543 70.4192 26.6694 76.3734 34.2267 76.3734H89.9754C97.5328 76.3734 103.659 70.4192 103.659 63.0744ZM62.1106 47.0894C67.4648 47.0894 71.8052 42.8711 71.8052 37.6675C71.8052 32.4639 67.4648 28.2455 62.1106 28.2455C56.7565 28.2455 52.416 32.4639 52.416 37.6675C52.416 42.8711 56.7565 47.0894 62.1106 47.0894Z" fill="white"/>
<g filter="url(#filter0_d_313_669)">
<mask id="path-2-inside-1_313_669" fill="white">
<path fill-rule="evenodd" clip-rule="evenodd" d="M103.659 63.0744V56.3393L123.865 66.1583C124.965 66.6927 126.271 66.6356 127.317 66.0073C128.363 65.3791 129 64.2694 129 63.0744V13.819C129 12.624 128.363 11.5143 127.317 10.886C126.271 10.2578 124.965 10.2007 123.865 10.7351L103.659 20.5541V13.819C103.659 6.47417 97.5328 0.52002 89.9754 0.52002H34.2267C26.6694 0.52002 20.543 6.47417 20.543 13.819V63.0744C20.543 70.4192 26.6694 76.3734 34.2267 76.3734H89.9754C97.5328 76.3734 103.659 70.4192 103.659 63.0744ZM62.1106 47.0894C67.4648 47.0894 71.8052 42.8711 71.8052 37.6675C71.8052 32.4639 67.4648 28.2455 62.1106 28.2455C56.7565 28.2455 52.416 32.4639 52.416 37.6675C52.416 42.8711 56.7565 47.0894 62.1106 47.0894Z"/>
</mask>
<path d="M103.659 56.3393L105.845 51.8422L98.6592 48.3505V56.3393H103.659ZM123.865 66.1583L126.051 61.6611L126.051 61.6611L123.865 66.1583ZM127.317 66.0073L129.892 70.2936L129.892 70.2936L127.317 66.0073ZM127.317 10.886L129.892 6.59982L129.892 6.59981L127.317 10.886ZM123.865 10.7351L126.051 15.2322L126.051 15.2322L123.865 10.7351ZM103.659 20.5541H98.6592V28.5428L105.845 25.0512L103.659 20.5541ZM98.6592 56.3393V63.0744H108.659V56.3393H98.6592ZM126.051 61.6611L105.845 51.8422L101.474 60.8365L121.68 70.6554L126.051 61.6611ZM124.742 61.7211C125.149 61.4767 125.634 61.4587 126.051 61.6611L121.68 70.6554C124.296 71.9267 127.393 71.7944 129.892 70.2936L124.742 61.7211ZM124 63.0744C124 62.469 124.322 61.9735 124.742 61.7211L129.892 70.2936C132.403 68.7848 134 66.0697 134 63.0744H124ZM124 13.819V63.0744H134V13.819H124ZM124.742 15.1723C124.322 14.9199 124 14.4243 124 13.819H134C134 10.8237 132.403 8.10861 129.892 6.59982L124.742 15.1723ZM126.051 15.2322C125.634 15.4347 125.149 15.4166 124.742 15.1723L129.892 6.59981C127.393 5.09899 124.296 4.96672 121.68 6.23797L126.051 15.2322ZM105.845 25.0512L126.051 15.2322L121.68 6.23796L101.474 16.0569L105.845 25.0512ZM98.6592 13.819V20.5541H108.659V13.819H98.6592ZM89.9754 5.52002C94.9067 5.52002 98.6592 9.36907 98.6592 13.819H108.659C108.659 3.57926 100.159 -4.47998 89.9754 -4.47998V5.52002ZM34.2267 5.52002H89.9754V-4.47998H34.2267V5.52002ZM25.543 13.819C25.543 9.36907 29.2954 5.52002 34.2267 5.52002V-4.47998C24.0434 -4.47998 15.543 3.57926 15.543 13.819H25.543ZM25.543 63.0744V13.819H15.543V63.0744H25.543ZM34.2267 71.3734C29.2954 71.3734 25.543 67.5243 25.543 63.0744H15.543C15.543 73.3141 24.0434 81.3734 34.2267 81.3734V71.3734ZM89.9754 71.3734H34.2267V81.3734H89.9754V71.3734ZM98.6592 63.0744C98.6592 67.5243 94.9067 71.3734 89.9754 71.3734V81.3734C100.159 81.3734 108.659 73.3141 108.659 63.0744H98.6592ZM66.8052 37.6675C66.8052 39.9762 64.8388 42.0894 62.1106 42.0894V52.0894C70.0908 52.0894 76.8052 45.766 76.8052 37.6675H66.8052ZM62.1106 33.2455C64.8388 33.2455 66.8052 35.3588 66.8052 37.6675H76.8052C76.8052 29.569 70.0908 23.2455 62.1106 23.2455V33.2455ZM57.416 37.6675C57.416 35.3588 59.3825 33.2455 62.1106 33.2455V23.2455C54.1304 23.2455 47.416 29.569 47.416 37.6675H57.416ZM62.1106 42.0894C59.3825 42.0894 57.416 39.9762 57.416 37.6675H47.416C47.416 45.766 54.1304 52.0894 62.1106 52.0894V42.0894Z" fill="url(#paint0_linear_313_669)" mask="url(#path-2-inside-1_313_669)"/>
</g>
<path fill-rule="evenodd" clip-rule="evenodd" d="M32.9945 71.033C29.6808 71.033 26.9945 68.3467 26.9945 65.033V60.8175C26.9945 57.8698 24.5329 55.4775 21.5 55.4775C18.4671 55.4775 16.0056 57.8698 16.0056 60.8175V65.033C16.0056 68.3467 13.3193 71.033 10.0056 71.033H5.49445C2.46151 71.033 0 73.4253 0 76.3729C0 79.3206 2.46151 81.7129 5.49445 81.7129H10.0056C13.3193 81.7129 16.0056 84.3992 16.0056 87.7129V91.9284C16.0056 94.876 18.4671 97.2683 21.5 97.2683C24.5329 97.2683 26.9945 94.876 26.9945 91.9284V87.7129C26.9945 84.3992 29.6807 81.7129 32.9945 81.7129H37.5056C40.5385 81.7129 43 79.3206 43 76.3729C43 73.4253 40.5385 71.033 37.5056 71.033H32.9945Z" fill="url(#paint1_linear_313_669)"/>
<ellipse cx="84.5413" cy="19.1685" rx="4.26395" ry="4.14404" fill="#EE4957"/>
</g>
<defs>
<filter id="filter0_d_313_669" x="15.543" y="-4.47998" width="124.457" height="91.8535" filterUnits="userSpaceOnUse" color-interpolation-filters="sRGB">
<feFlood flood-opacity="0" result="BackgroundImageFix"/>
<feColorMatrix in="SourceAlpha" type="matrix" values="0 0 0 0 0 0 0 0 0 0 0 0 0 0 0 0 0 0 127 0" result="hardAlpha"/>
<feOffset dx="3" dy="3"/>
<feGaussianBlur stdDeviation="4"/>
<feColorMatrix type="matrix" values="0 0 0 0 0 0 0 0 0 0 0 0 0 0 0 0 0 0 0.17 0"/>
<feBlend mode="normal" in2="BackgroundImageFix" result="effect1_dropShadow_313_669"/>
<feBlend mode="normal" in="SourceGraphic" in2="effect1_dropShadow_313_669" result="shape"/>
</filter>
<linearGradient id="paint0_linear_313_669" x1="23.4546" y1="0.520028" x2="48.1437" y2="69.9382" gradientUnits="userSpaceOnUse">
<stop stop-color="white" stop-opacity="0.12"/>
<stop offset="1" stop-color="white" stop-opacity="0"/>
</linearGradient>
<linearGradient id="paint1_linear_313_669" x1="21.5" y1="55.4775" x2="21.5" y2="97.2683" gradientUnits="userSpaceOnUse">
<stop stop-color="#ACACAC"/>
<stop offset="1" stop-color="#818181"/>
</linearGradient>
<clipPath id="clip0_313_669">
<rect width="129" height="96.7483" fill="white" transform="translate(0 0.52002)"/>
</clipPath>
</defs>
</svg>
