<svg width="106" height="107" viewBox="0 0 106 107" fill="none" xmlns="http://www.w3.org/2000/svg">
<path opacity="0.3" d="M93.0615 64.5605C93.0615 67.1261 92.0424 69.5866 90.2282 71.4007C88.4141 73.2149 85.9536 74.2341 83.388 74.2341H26.7895C25.8659 74.2341 24.9801 74.601 24.327 75.254L11.9449 87.6361C9.75111 89.8299 6 88.2762 6 85.1737V16.193C6 13.6275 7.01917 11.167 8.8333 9.35283C10.6474 7.5387 13.1079 6.51953 15.6735 6.51953H83.388C85.9536 6.51953 88.4141 7.5387 90.2282 9.35283C92.0424 11.167 93.0615 13.6275 93.0615 16.193V64.5605Z" fill="white"/>
<g filter="url(#filter0_d_313_661)">
<path d="M39.3906 40.8652C39.3906 43.5219 37.1745 45.6757 34.4409 45.6757C31.7073 45.6757 29.4912 43.5219 29.4912 40.8652C29.4912 38.2084 31.7073 36.0547 34.4409 36.0547C37.1745 36.0547 39.3906 38.2084 39.3906 40.8652Z" fill="url(#paint0_linear_313_661)"/>
<path d="M54.4812 40.8652C54.4812 43.5219 52.2652 45.6757 49.5316 45.6757C46.7979 45.6757 44.5819 43.5219 44.5819 40.8652C44.5819 38.2084 46.7979 36.0547 49.5316 36.0547C52.2652 36.0547 54.4812 38.2084 54.4812 40.8652Z" fill="url(#paint1_linear_313_661)"/>
<path d="M69.5719 40.8652C69.5719 43.5219 67.3559 45.6757 64.6222 45.6757C61.8886 45.6757 59.6725 43.5219 59.6725 40.8652C59.6725 38.2084 61.8886 36.0547 64.6222 36.0547C67.3559 36.0547 69.5719 38.2084 69.5719 40.8652Z" fill="url(#paint2_linear_313_661)"/>
</g>
<g filter="url(#filter1_d_313_661)">
<path d="M25.347 71.332H24.1449L23.2949 72.182L8.90205 86.5749V16.193C8.90205 14.3971 9.61547 12.6748 10.8854 11.4049C12.1553 10.135 13.8776 9.42158 15.6735 9.42158H83.388C85.1839 9.42158 86.9063 10.135 88.1762 11.4049L90.2079 9.37315L88.1762 11.4049C89.4461 12.6748 90.1595 14.3971 90.1595 16.193V64.5605C90.1595 66.3565 89.4461 68.0788 88.1762 69.3487C86.9063 70.6186 85.1839 71.332 83.388 71.332H25.347Z" stroke="url(#paint3_linear_313_661)" stroke-width="5.8041"/>
</g>
<defs>
<filter id="filter0_d_313_661" x="23.6871" y="30.2506" width="58.6542" height="28.1942" filterUnits="userSpaceOnUse" color-interpolation-filters="sRGB">
<feFlood flood-opacity="0" result="BackgroundImageFix"/>
<feColorMatrix in="SourceAlpha" type="matrix" values="0 0 0 0 0 0 0 0 0 0 0 0 0 0 0 0 0 0 127 0" result="hardAlpha"/>
<feOffset dx="3.48246" dy="3.48246"/>
<feGaussianBlur stdDeviation="4.64328"/>
<feColorMatrix type="matrix" values="0 0 0 0 0 0 0 0 0 0 0 0 0 0 0 0 0 0 0.17 0"/>
<feBlend mode="normal" in2="BackgroundImageFix" result="effect1_dropShadow_313_661"/>
<feBlend mode="normal" in="SourceGraphic" in2="effect1_dropShadow_313_661" result="shape"/>
</filter>
<filter id="filter1_d_313_661" x="0.195898" y="0.715429" width="105.635" height="105.635" filterUnits="userSpaceOnUse" color-interpolation-filters="sRGB">
<feFlood flood-opacity="0" result="BackgroundImageFix"/>
<feColorMatrix in="SourceAlpha" type="matrix" values="0 0 0 0 0 0 0 0 0 0 0 0 0 0 0 0 0 0 127 0" result="hardAlpha"/>
<feOffset dx="3.48246" dy="3.48246"/>
<feGaussianBlur stdDeviation="4.64328"/>
<feColorMatrix type="matrix" values="0 0 0 0 0 0 0 0 0 0 0 0 0 0 0 0 0 0 0.17 0"/>
<feBlend mode="normal" in2="BackgroundImageFix" result="effect1_dropShadow_313_661"/>
<feBlend mode="normal" in="SourceGraphic" in2="effect1_dropShadow_313_661" result="shape"/>
</filter>
<linearGradient id="paint0_linear_313_661" x1="29.4912" y1="27.1196" x2="67.5999" y2="55.7985" gradientUnits="userSpaceOnUse">
<stop stop-color="#1E6EA9"/>
<stop offset="0.520833" stop-color="#4BC270"/>
<stop offset="1" stop-color="#FFCB3C"/>
</linearGradient>
<linearGradient id="paint1_linear_313_661" x1="29.4912" y1="27.1196" x2="67.5999" y2="55.7985" gradientUnits="userSpaceOnUse">
<stop stop-color="#1E6EA9"/>
<stop offset="0.520833" stop-color="#4BC270"/>
<stop offset="1" stop-color="#FFCB3C"/>
</linearGradient>
<linearGradient id="paint2_linear_313_661" x1="29.4912" y1="27.1196" x2="67.5999" y2="55.7985" gradientUnits="userSpaceOnUse">
<stop stop-color="#1E6EA9"/>
<stop offset="0.520833" stop-color="#4BC270"/>
<stop offset="1" stop-color="#FFCB3C"/>
</linearGradient>
<linearGradient id="paint3_linear_313_661" x1="8.33727" y1="6.51954" x2="44.6016" y2="77.8321" gradientUnits="userSpaceOnUse">
<stop stop-color="white" stop-opacity="0.12"/>
<stop offset="1" stop-color="white" stop-opacity="0"/>
</linearGradient>
</defs>
</svg>
