<svg width="239" height="46" viewBox="0 0 239 46" fill="none" xmlns="http://www.w3.org/2000/svg">
<path fill-rule="evenodd" clip-rule="evenodd" d="M204.498 33.5878C204.599 33.1529 205.158 30.8123 205.764 28.4149C206.37 26.0175 207.552 21.3379 208.392 18.0393C208.911 16.0033 209.506 13.6604 209.987 11.7637C210.285 10.5875 210.54 9.58296 210.707 8.92963C211.324 6.57116 211.621 5.73578 211.974 5.50001C212.262 5.32695 212.604 5.2646 212.84 5.34116C213.076 5.41772 213.91 5.77912 214.686 6.15839L216.129 6.84352L221.185 5.29517C222.009 6.0423 222.625 7.91646 226.236 19.9119C230.163 32.8736 230.405 33.7351 230.176 34.1668C227.565 35.0568 227.123 35.2076 227.121 35.2007C227.118 35.1918 227.859 34.9156 225.527 35.6544L224.883 35.4263C218.44 14.3878 217.012 9.93355 216.858 9.91691C216.723 9.89431 216.204 11.6698 215.675 13.8311C215.151 16.0117 214.464 18.8381 214.131 20.11C213.797 21.3819 213.229 23.555 212.873 24.9615C212.517 26.3679 212.107 27.8759 211.967 28.3228C211.847 28.7637 211.408 30.3868 211.018 31.8889C210.614 33.4163 210.213 34.8152 210.118 34.993C210.043 35.1649 209.768 35.3768 209.515 35.4542C209.282 35.5257 208.253 35.5004 207.226 35.4109C206.199 35.3214 205.15 35.0898 204.884 34.916C204.612 34.7228 204.385 34.5371 204.367 34.4787C204.369 34.4144 204.417 34.0168 204.498 33.5878ZM210.788 12.9456C211.12 11.7379 211.437 10.62 211.504 10.493C211.546 10.3525 212.408 9.83335 213.399 9.31733C214.409 8.79535 215.267 8.40475 215.343 8.44522C215.42 8.48568 215.247 9.24049 214.981 10.1088C214.721 10.9966 214.418 12.0891 214.304 12.5494C214.152 13.234 213.952 13.4864 213.418 13.7563C213.034 13.9592 212.168 14.3946 211.484 14.7316C210.781 15.0746 210.215 15.3116 210.197 15.2532C210.199 15.1889 210.456 14.1532 210.788 12.9456ZM209.064 20.0241C208.97 20.2019 208.626 21.3707 208.274 22.5842C207.948 23.8113 207.691 24.8471 207.742 24.874C207.793 24.901 208.626 24.4969 209.603 24.0063C210.574 23.4962 211.428 23.0219 211.469 22.9457C211.529 22.8635 211.852 21.7651 212.185 20.4932C212.519 19.2213 212.719 18.1391 212.598 18.0911C212.502 18.0565 211.709 18.3844 210.83 18.8453C209.956 19.3256 209.158 19.8463 209.064 20.0241ZM206.663 28.9902L206.004 31.2125C205.653 32.4261 205.4 33.5456 205.416 33.6682C205.458 33.8043 205.649 33.8733 205.844 33.8138C206.019 33.7602 206.819 33.3875 209.059 32.2974L209.698 30.081C210.03 28.8734 210.304 27.6837 210.303 27.4714C210.305 27.1305 210.234 27.1095 209.953 27.302C209.757 27.4258 208.936 27.8688 206.663 28.9902Z" fill="white"/>
<path d="M233.738 35.1502L239 34.6333C238.66 27.1672 236.745 13.0454 235.993 5.38679L235.416 5.12622C231.116 5.58135 236.864 4.8767 230.563 5.6505C230.245 5.95141 230.293 6.64474 232.018 23.2625C232.909 32.9473 233.099 34.4674 233.738 35.1502Z" fill="white"/>
<path d="M22.1035 13.1209V35.1733H20.276V30.3811C19.017 33.8331 15.8087 35.5388 12.1942 35.5388C7.28012 35.5388 3.25952 32.6148 3.25952 25.9544V13.1209H5.04645V25.8325C5.04645 31.234 8.01114 33.955 12.4379 33.955C17.027 33.955 20.276 31.0715 20.276 24.9391V13.1209H22.1035ZM45.5879 35.1733V22.3805C45.5879 17.0197 42.6232 14.2581 38.1964 14.2581C33.6073 14.2581 30.3583 17.1416 30.3583 23.274V35.1733H28.5308V13.1209H30.3583V17.7913C31.6579 14.3799 34.8256 12.6742 38.4807 12.6742C43.3948 12.6742 47.3748 15.6389 47.3748 22.2587V35.1733H45.5879ZM55.4265 22.4617V35.1733H53.5989V13.1209H55.4265V17.6695C56.523 14.4611 59.244 12.6742 63.5895 12.6742V14.583H62.9803C59.2034 14.583 55.4265 16.4511 55.4265 22.4617ZM77.1061 14.3799C72.5981 14.3799 68.4963 17.2634 68.2932 23.3552H85.594C85.8783 17.2228 81.5734 14.3799 77.1061 14.3799ZM87.2591 27.9444C86.4063 32.2899 82.7918 35.4982 77.1467 35.4982C70.9736 35.4982 66.4251 31.1934 66.4251 24.1268C66.4251 17.1009 70.8924 12.8367 77.1467 12.8367C83.7665 12.8367 87.4216 17.5477 87.4216 22.6648C87.4216 23.6395 87.4216 24.1268 87.3403 24.8579H68.2932C68.4557 30.9903 72.5981 33.9144 77.1467 33.9144C81.4922 33.9144 84.6193 31.5995 85.3503 27.9444H87.2591ZM94.5373 18.9285C95.715 15.5577 99.0452 12.8367 103.878 12.8367C110.051 12.8367 114.518 17.1416 114.518 24.1268C114.518 31.0715 110.051 35.4982 103.878 35.4982C99.0452 35.4982 95.7556 32.7366 94.5373 29.4064V45.57H92.7097V13.1209H94.5373V18.9285ZM112.65 24.1268C112.65 18.035 108.955 14.4205 103.594 14.4205C98.4766 14.4205 94.5373 18.2381 94.5373 24.1268C94.5373 30.0968 98.4766 33.8738 103.594 33.8738C108.955 33.8738 112.65 30.2187 112.65 24.1268ZM121.628 18.9285C122.806 15.5577 126.136 12.8367 130.969 12.8367C137.142 12.8367 141.609 17.1416 141.609 24.1268C141.609 31.0715 137.142 35.4982 130.969 35.4982C126.136 35.4982 122.846 32.7366 121.628 29.4064V45.57H119.801V13.1209H121.628V18.9285ZM139.741 24.1268C139.741 18.035 136.045 14.4205 130.685 14.4205C125.568 14.4205 121.628 18.2381 121.628 24.1268C121.628 30.0968 125.568 33.8738 130.685 33.8738C136.045 33.8738 139.741 30.2187 139.741 24.1268ZM156.435 14.3799C151.927 14.3799 147.826 17.2634 147.622 23.3552H164.923C165.208 17.2228 160.903 14.3799 156.435 14.3799ZM166.588 27.9444C165.735 32.2899 162.121 35.4982 156.476 35.4982C150.303 35.4982 145.754 31.1934 145.754 24.1268C145.754 17.1009 150.222 12.8367 156.476 12.8367C163.096 12.8367 166.751 17.5477 166.751 22.6648C166.751 23.6395 166.751 24.1268 166.67 24.8579H147.622C147.785 30.9903 151.927 33.9144 156.476 33.9144C160.821 33.9144 163.949 31.5995 164.68 27.9444H166.588ZM170.902 24.1268C170.902 17.1416 175.369 12.8367 181.542 12.8367C186.172 12.8367 189.583 15.4358 190.883 18.8879V5.12036H192.711V35.1733H190.883V29.3252C189.665 32.7772 186.375 35.4982 181.542 35.4982C175.369 35.4982 170.902 31.0715 170.902 24.1268ZM190.883 24.1268C190.883 18.2381 186.944 14.4205 181.786 14.4205C176.466 14.4205 172.77 18.035 172.77 24.1268C172.77 30.2187 176.466 33.8738 181.786 33.8738C186.944 33.8738 190.883 30.0968 190.883 24.1268Z" fill="white"/>
<path d="M22.1035 13.1209V35.1733H20.276V30.3811C19.017 33.8331 15.8087 35.5388 12.1942 35.5388C7.28012 35.5388 3.25952 32.6148 3.25952 25.9544V13.1209H5.04645V25.8325C5.04645 31.234 8.01114 33.955 12.4379 33.955C17.027 33.955 20.276 31.0715 20.276 24.9391V13.1209H22.1035ZM45.5879 35.1733V22.3805C45.5879 17.0197 42.6232 14.2581 38.1964 14.2581C33.6073 14.2581 30.3583 17.1416 30.3583 23.274V35.1733H28.5308V13.1209H30.3583V17.7913C31.6579 14.3799 34.8256 12.6742 38.4807 12.6742C43.3948 12.6742 47.3748 15.6389 47.3748 22.2587V35.1733H45.5879ZM55.4265 22.4617V35.1733H53.5989V13.1209H55.4265V17.6695C56.523 14.4611 59.244 12.6742 63.5895 12.6742V14.583H62.9803C59.2034 14.583 55.4265 16.4511 55.4265 22.4617ZM77.1061 14.3799C72.5981 14.3799 68.4963 17.2634 68.2932 23.3552H85.594C85.8783 17.2228 81.5734 14.3799 77.1061 14.3799ZM87.2591 27.9444C86.4063 32.2899 82.7918 35.4982 77.1467 35.4982C70.9736 35.4982 66.4251 31.1934 66.4251 24.1268C66.4251 17.1009 70.8924 12.8367 77.1467 12.8367C83.7665 12.8367 87.4216 17.5477 87.4216 22.6648C87.4216 23.6395 87.4216 24.1268 87.3403 24.8579H68.2932C68.4557 30.9903 72.5981 33.9144 77.1467 33.9144C81.4922 33.9144 84.6193 31.5995 85.3503 27.9444H87.2591ZM94.5373 18.9285C95.715 15.5577 99.0452 12.8367 103.878 12.8367C110.051 12.8367 114.518 17.1416 114.518 24.1268C114.518 31.0715 110.051 35.4982 103.878 35.4982C99.0452 35.4982 95.7556 32.7366 94.5373 29.4064V45.57H92.7097V13.1209H94.5373V18.9285ZM112.65 24.1268C112.65 18.035 108.955 14.4205 103.594 14.4205C98.4766 14.4205 94.5373 18.2381 94.5373 24.1268C94.5373 30.0968 98.4766 33.8738 103.594 33.8738C108.955 33.8738 112.65 30.2187 112.65 24.1268ZM121.628 18.9285C122.806 15.5577 126.136 12.8367 130.969 12.8367C137.142 12.8367 141.609 17.1416 141.609 24.1268C141.609 31.0715 137.142 35.4982 130.969 35.4982C126.136 35.4982 122.846 32.7366 121.628 29.4064V45.57H119.801V13.1209H121.628V18.9285ZM139.741 24.1268C139.741 18.035 136.045 14.4205 130.685 14.4205C125.568 14.4205 121.628 18.2381 121.628 24.1268C121.628 30.0968 125.568 33.8738 130.685 33.8738C136.045 33.8738 139.741 30.2187 139.741 24.1268ZM156.435 14.3799C151.927 14.3799 147.826 17.2634 147.622 23.3552H164.923C165.208 17.2228 160.903 14.3799 156.435 14.3799ZM166.588 27.9444C165.735 32.2899 162.121 35.4982 156.476 35.4982C150.303 35.4982 145.754 31.1934 145.754 24.1268C145.754 17.1009 150.222 12.8367 156.476 12.8367C163.096 12.8367 166.751 17.5477 166.751 22.6648C166.751 23.6395 166.751 24.1268 166.67 24.8579H147.622C147.785 30.9903 151.927 33.9144 156.476 33.9144C160.821 33.9144 163.949 31.5995 164.68 27.9444H166.588ZM170.902 24.1268C170.902 17.1416 175.369 12.8367 181.542 12.8367C186.172 12.8367 189.583 15.4358 190.883 18.8879V5.12036H192.711V35.1733H190.883V29.3252C189.665 32.7772 186.375 35.4982 181.542 35.4982C175.369 35.4982 170.902 31.0715 170.902 24.1268ZM190.883 24.1268C190.883 18.2381 186.944 14.4205 181.786 14.4205C176.466 14.4205 172.77 18.035 172.77 24.1268C172.77 30.2187 176.466 33.8738 181.786 33.8738C186.944 33.8738 190.883 30.0968 190.883 24.1268Z" fill="url(#paint0_angular_325_562)"/>
<path d="M22.1035 13.1209V35.1733H20.276V30.3811C19.017 33.8331 15.8087 35.5388 12.1942 35.5388C7.28012 35.5388 3.25952 32.6148 3.25952 25.9544V13.1209H5.04645V25.8325C5.04645 31.234 8.01114 33.955 12.4379 33.955C17.027 33.955 20.276 31.0715 20.276 24.9391V13.1209H22.1035ZM45.5879 35.1733V22.3805C45.5879 17.0197 42.6232 14.2581 38.1964 14.2581C33.6073 14.2581 30.3583 17.1416 30.3583 23.274V35.1733H28.5308V13.1209H30.3583V17.7913C31.6579 14.3799 34.8256 12.6742 38.4807 12.6742C43.3948 12.6742 47.3748 15.6389 47.3748 22.2587V35.1733H45.5879ZM55.4265 22.4617V35.1733H53.5989V13.1209H55.4265V17.6695C56.523 14.4611 59.244 12.6742 63.5895 12.6742V14.583H62.9803C59.2034 14.583 55.4265 16.4511 55.4265 22.4617ZM77.1061 14.3799C72.5981 14.3799 68.4963 17.2634 68.2932 23.3552H85.594C85.8783 17.2228 81.5734 14.3799 77.1061 14.3799ZM87.2591 27.9444C86.4063 32.2899 82.7918 35.4982 77.1467 35.4982C70.9736 35.4982 66.4251 31.1934 66.4251 24.1268C66.4251 17.1009 70.8924 12.8367 77.1467 12.8367C83.7665 12.8367 87.4216 17.5477 87.4216 22.6648C87.4216 23.6395 87.4216 24.1268 87.3403 24.8579H68.2932C68.4557 30.9903 72.5981 33.9144 77.1467 33.9144C81.4922 33.9144 84.6193 31.5995 85.3503 27.9444H87.2591ZM94.5373 18.9285C95.715 15.5577 99.0452 12.8367 103.878 12.8367C110.051 12.8367 114.518 17.1416 114.518 24.1268C114.518 31.0715 110.051 35.4982 103.878 35.4982C99.0452 35.4982 95.7556 32.7366 94.5373 29.4064V45.57H92.7097V13.1209H94.5373V18.9285ZM112.65 24.1268C112.65 18.035 108.955 14.4205 103.594 14.4205C98.4766 14.4205 94.5373 18.2381 94.5373 24.1268C94.5373 30.0968 98.4766 33.8738 103.594 33.8738C108.955 33.8738 112.65 30.2187 112.65 24.1268ZM121.628 18.9285C122.806 15.5577 126.136 12.8367 130.969 12.8367C137.142 12.8367 141.609 17.1416 141.609 24.1268C141.609 31.0715 137.142 35.4982 130.969 35.4982C126.136 35.4982 122.846 32.7366 121.628 29.4064V45.57H119.801V13.1209H121.628V18.9285ZM139.741 24.1268C139.741 18.035 136.045 14.4205 130.685 14.4205C125.568 14.4205 121.628 18.2381 121.628 24.1268C121.628 30.0968 125.568 33.8738 130.685 33.8738C136.045 33.8738 139.741 30.2187 139.741 24.1268ZM156.435 14.3799C151.927 14.3799 147.826 17.2634 147.622 23.3552H164.923C165.208 17.2228 160.903 14.3799 156.435 14.3799ZM166.588 27.9444C165.735 32.2899 162.121 35.4982 156.476 35.4982C150.303 35.4982 145.754 31.1934 145.754 24.1268C145.754 17.1009 150.222 12.8367 156.476 12.8367C163.096 12.8367 166.751 17.5477 166.751 22.6648C166.751 23.6395 166.751 24.1268 166.67 24.8579H147.622C147.785 30.9903 151.927 33.9144 156.476 33.9144C160.821 33.9144 163.949 31.5995 164.68 27.9444H166.588ZM170.902 24.1268C170.902 17.1416 175.369 12.8367 181.542 12.8367C186.172 12.8367 189.583 15.4358 190.883 18.8879V5.12036H192.711V35.1733H190.883V29.3252C189.665 32.7772 186.375 35.4982 181.542 35.4982C175.369 35.4982 170.902 31.0715 170.902 24.1268ZM190.883 24.1268C190.883 18.2381 186.944 14.4205 181.786 14.4205C176.466 14.4205 172.77 18.035 172.77 24.1268C172.77 30.2187 176.466 33.8738 181.786 33.8738C186.944 33.8738 190.883 30.0968 190.883 24.1268Z" fill="url(#paint1_linear_325_562)" fill-opacity="0.49"/>
<path d="M22.1035 13.1209V35.1733H20.276V30.3811C19.017 33.8331 15.8087 35.5388 12.1942 35.5388C7.28012 35.5388 3.25952 32.6148 3.25952 25.9544V13.1209H5.04645V25.8325C5.04645 31.234 8.01114 33.955 12.4379 33.955C17.027 33.955 20.276 31.0715 20.276 24.9391V13.1209H22.1035ZM45.5879 35.1733V22.3805C45.5879 17.0197 42.6232 14.2581 38.1964 14.2581C33.6073 14.2581 30.3583 17.1416 30.3583 23.274V35.1733H28.5308V13.1209H30.3583V17.7913C31.6579 14.3799 34.8256 12.6742 38.4807 12.6742C43.3948 12.6742 47.3748 15.6389 47.3748 22.2587V35.1733H45.5879ZM55.4265 22.4617V35.1733H53.5989V13.1209H55.4265V17.6695C56.523 14.4611 59.244 12.6742 63.5895 12.6742V14.583H62.9803C59.2034 14.583 55.4265 16.4511 55.4265 22.4617ZM77.1061 14.3799C72.5981 14.3799 68.4963 17.2634 68.2932 23.3552H85.594C85.8783 17.2228 81.5734 14.3799 77.1061 14.3799ZM87.2591 27.9444C86.4063 32.2899 82.7918 35.4982 77.1467 35.4982C70.9736 35.4982 66.4251 31.1934 66.4251 24.1268C66.4251 17.1009 70.8924 12.8367 77.1467 12.8367C83.7665 12.8367 87.4216 17.5477 87.4216 22.6648C87.4216 23.6395 87.4216 24.1268 87.3403 24.8579H68.2932C68.4557 30.9903 72.5981 33.9144 77.1467 33.9144C81.4922 33.9144 84.6193 31.5995 85.3503 27.9444H87.2591ZM94.5373 18.9285C95.715 15.5577 99.0452 12.8367 103.878 12.8367C110.051 12.8367 114.518 17.1416 114.518 24.1268C114.518 31.0715 110.051 35.4982 103.878 35.4982C99.0452 35.4982 95.7556 32.7366 94.5373 29.4064V45.57H92.7097V13.1209H94.5373V18.9285ZM112.65 24.1268C112.65 18.035 108.955 14.4205 103.594 14.4205C98.4766 14.4205 94.5373 18.2381 94.5373 24.1268C94.5373 30.0968 98.4766 33.8738 103.594 33.8738C108.955 33.8738 112.65 30.2187 112.65 24.1268ZM121.628 18.9285C122.806 15.5577 126.136 12.8367 130.969 12.8367C137.142 12.8367 141.609 17.1416 141.609 24.1268C141.609 31.0715 137.142 35.4982 130.969 35.4982C126.136 35.4982 122.846 32.7366 121.628 29.4064V45.57H119.801V13.1209H121.628V18.9285ZM139.741 24.1268C139.741 18.035 136.045 14.4205 130.685 14.4205C125.568 14.4205 121.628 18.2381 121.628 24.1268C121.628 30.0968 125.568 33.8738 130.685 33.8738C136.045 33.8738 139.741 30.2187 139.741 24.1268ZM156.435 14.3799C151.927 14.3799 147.826 17.2634 147.622 23.3552H164.923C165.208 17.2228 160.903 14.3799 156.435 14.3799ZM166.588 27.9444C165.735 32.2899 162.121 35.4982 156.476 35.4982C150.303 35.4982 145.754 31.1934 145.754 24.1268C145.754 17.1009 150.222 12.8367 156.476 12.8367C163.096 12.8367 166.751 17.5477 166.751 22.6648C166.751 23.6395 166.751 24.1268 166.67 24.8579H147.622C147.785 30.9903 151.927 33.9144 156.476 33.9144C160.821 33.9144 163.949 31.5995 164.68 27.9444H166.588ZM170.902 24.1268C170.902 17.1416 175.369 12.8367 181.542 12.8367C186.172 12.8367 189.583 15.4358 190.883 18.8879V5.12036H192.711V35.1733H190.883V29.3252C189.665 32.7772 186.375 35.4982 181.542 35.4982C175.369 35.4982 170.902 31.0715 170.902 24.1268ZM190.883 24.1268C190.883 18.2381 186.944 14.4205 181.786 14.4205C176.466 14.4205 172.77 18.035 172.77 24.1268C172.77 30.2187 176.466 33.8738 181.786 33.8738C186.944 33.8738 190.883 30.0968 190.883 24.1268Z" fill="url(#paint2_linear_325_562)"/>
<path d="M200.389 33.7113C200.389 34.6454 199.698 35.2952 198.846 35.2952C197.952 35.2952 197.262 34.6454 197.262 33.7113C197.262 32.7772 197.952 32.1274 198.846 32.1274C199.698 32.1274 200.389 32.7772 200.389 33.7113Z" fill="white"/>
<defs>
<radialGradient id="paint0_angular_325_562" cx="0" cy="0" r="1" gradientUnits="userSpaceOnUse" gradientTransform="translate(104.169 25.0587) rotate(90) scale(33.4095 164.603)">
<stop offset="0.0915365" stop-color="#FF0000"/>
<stop offset="0.398925" stop-color="#FFC700"/>
<stop offset="0.607228" stop-color="#19DE74"/>
<stop offset="0.901028" stop-color="#00A3FF"/>
</radialGradient>
<linearGradient id="paint1_linear_325_562" x1="-1.12567e-08" y1="26.4762" x2="195.316" y2="23.3109" gradientUnits="userSpaceOnUse">
<stop stop-color="#FF0000"/>
<stop offset="0.37" stop-color="#FFC700"/>
<stop offset="0.695" stop-color="#19DE74"/>
<stop offset="1" stop-color="#00A3FF"/>
</linearGradient>
<linearGradient id="paint2_linear_325_562" x1="38.3104" y1="9.69982" x2="141.902" y2="81.8909" gradientUnits="userSpaceOnUse">
<stop stop-color="#1E6EA9"/>
<stop offset="0.520833" stop-color="#4BC270"/>
<stop offset="1" stop-color="#FFCB3C"/>
</linearGradient>
</defs>
</svg>
