<svg width="270" height="94" viewBox="0 0 270 94" fill="none" xmlns="http://www.w3.org/2000/svg">
<g clip-path="url(#clip0_415_568)">
<path opacity="0.3" d="M225.868 0.307617H30.2553C13.7518 0.307617 0.373047 13.6864 0.373047 30.1899V63.6451C0.373047 80.1487 13.7518 93.5274 30.2553 93.5274H225.868C242.371 93.5274 255.75 80.1487 255.75 63.6451V30.1899C255.75 13.6864 242.371 0.307617 225.868 0.307617Z" fill="white"/>
<g filter="url(#filter0_d_415_568)">
<path d="M265.061 37.3254C266.013 37.3254 266.785 38.0975 266.785 39.0499V54.0901C266.785 55.0425 266.013 55.8145 265.061 55.8145C264.109 55.8145 263.337 55.0425 263.337 54.0901V39.0499C263.337 38.0975 264.109 37.3254 265.061 37.3254ZM3.52539 29.8426C3.52539 15.0801 15.4927 3.11279 30.2552 3.11279H225.868C240.63 3.11279 252.597 15.0801 252.597 29.8426V63.2977C252.597 78.0602 240.63 90.0275 225.868 90.0275H30.2552C15.4927 90.0275 3.52539 78.0602 3.52539 63.2977V29.8426Z" stroke="url(#paint0_linear_415_568)" stroke-width="6.30511"/>
</g>
<path opacity="0.5" d="M260.184 39.3975C260.184 36.704 262.368 34.5205 265.061 34.5205C267.754 34.5205 269.938 36.704 269.938 39.3975V54.4377C269.938 57.1312 267.754 59.3147 265.061 59.3147C262.368 59.3147 260.184 57.1312 260.184 54.4377V39.3975Z" fill="white"/>
</g>
<defs>
<filter id="filter0_d_415_568" x="-5.93206" y="-6.34466" width="289.741" height="113.396" filterUnits="userSpaceOnUse" color-interpolation-filters="sRGB">
<feFlood flood-opacity="0" result="BackgroundImageFix"/>
<feColorMatrix in="SourceAlpha" type="matrix" values="0 0 0 0 0 0 0 0 0 0 0 0 0 0 0 0 0 0 127 0" result="hardAlpha"/>
<feOffset dx="3.78307" dy="3.78307"/>
<feGaussianBlur stdDeviation="5.04409"/>
<feColorMatrix type="matrix" values="0 0 0 0 0 0 0 0 0 0 0 0 0 0 0 0 0 0 0.17 0"/>
<feBlend mode="normal" in2="BackgroundImageFix" result="effect1_dropShadow_415_568"/>
<feBlend mode="normal" in="SourceGraphic" in2="effect1_dropShadow_415_568" result="shape"/>
</filter>
<linearGradient id="paint0_linear_415_568" x1="7.60959" y1="-0.0397467" x2="24.0029" y2="93.1798" gradientUnits="userSpaceOnUse">
<stop stop-color="white" stop-opacity="0.12"/>
<stop offset="1" stop-color="white" stop-opacity="0"/>
</linearGradient>
<clipPath id="clip0_415_568">
<rect width="270" height="94" fill="white"/>
</clipPath>
</defs>
</svg>
