<svg width="24" height="17" viewBox="0 0 24 17" fill="none" xmlns="http://www.w3.org/2000/svg">
<path fill-rule="evenodd" clip-rule="evenodd" d="M21.3328 0.681114C22.3513 0.955319 23.1543 1.75835 23.4285 2.77683C23.9378 4.63751 23.9182 8.51556 23.9182 8.51556C23.9182 8.51556 23.9182 12.374 23.4285 14.2347C23.1543 15.2532 22.3513 16.0562 21.3328 16.3304C19.4721 16.8201 12.0294 16.8201 12.0294 16.8201C12.0294 16.8201 4.60626 16.8201 2.72599 16.3108C1.70751 16.0366 0.904483 15.2336 0.630278 14.2151C0.140625 12.374 0.140625 8.49597 0.140625 8.49597C0.140625 8.49597 0.140625 4.63751 0.630278 2.77683C0.904483 1.75835 1.7271 0.935733 2.72599 0.661528C4.58667 0.171875 12.0294 0.171875 12.0294 0.171875C12.0294 0.171875 19.4721 0.171875 21.3328 0.681114ZM15.8487 8.49596L9.65949 12.0606V4.93129L15.8487 8.49596Z" fill="white"/>
</svg>
