<svg width="256" height="256" viewBox="0 0 256 256" fill="none" xmlns="http://www.w3.org/2000/svg">
<rect width="256" height="256" rx="4" fill="#101010"/>
<path d="M173.395 89.4V198H164.395V174.4C161.329 182.667 156.195 189 148.995 193.4C141.929 197.667 133.795 199.8 124.595 199.8C111.662 199.8 101.062 195.867 92.7953 188C84.662 180 80.5953 168.2 80.5953 152.6V89.4H89.3953V152C89.3953 164.933 92.662 174.867 99.1953 181.8C105.729 188.6 114.595 192 125.795 192C137.529 192 146.862 188.267 153.795 180.8C160.862 173.333 164.395 162.267 164.395 147.6V89.4H173.395Z" fill="white"/>
<path d="M173.395 89.4V198H164.395V174.4C161.329 182.667 156.195 189 148.995 193.4C141.929 197.667 133.795 199.8 124.595 199.8C111.662 199.8 101.062 195.867 92.7953 188C84.662 180 80.5953 168.2 80.5953 152.6V89.4H89.3953V152C89.3953 164.933 92.662 174.867 99.1953 181.8C105.729 188.6 114.595 192 125.795 192C137.529 192 146.862 188.267 153.795 180.8C160.862 173.333 164.395 162.267 164.395 147.6V89.4H173.395Z" fill="url(#paint0_angular_374_1029)"/>
<path d="M173.395 89.4V198H164.395V174.4C161.329 182.667 156.195 189 148.995 193.4C141.929 197.667 133.795 199.8 124.595 199.8C111.662 199.8 101.062 195.867 92.7953 188C84.662 180 80.5953 168.2 80.5953 152.6V89.4H89.3953V152C89.3953 164.933 92.662 174.867 99.1953 181.8C105.729 188.6 114.595 192 125.795 192C137.529 192 146.862 188.267 153.795 180.8C160.862 173.333 164.395 162.267 164.395 147.6V89.4H173.395Z" fill="url(#paint1_linear_374_1029)" fill-opacity="0.49"/>
<path d="M173.395 89.4V198H164.395V174.4C161.329 182.667 156.195 189 148.995 193.4C141.929 197.667 133.795 199.8 124.595 199.8C111.662 199.8 101.062 195.867 92.7953 188C84.662 180 80.5953 168.2 80.5953 152.6V89.4H89.3953V152C89.3953 164.933 92.662 174.867 99.1953 181.8C105.729 188.6 114.595 192 125.795 192C137.529 192 146.862 188.267 153.795 180.8C160.862 173.333 164.395 162.267 164.395 147.6V89.4H173.395Z" fill="url(#paint2_linear_374_1029)"/>
<defs>
<radialGradient id="paint0_angular_374_1029" cx="0" cy="0" r="1" gradientUnits="userSpaceOnUse" gradientTransform="translate(129.461 149.392) rotate(90) scale(162.973 101.858)">
<stop offset="0.0915365" stop-color="#FF0000"/>
<stop offset="0.398925" stop-color="#FFC700"/>
<stop offset="0.607228" stop-color="#19DE74"/>
<stop offset="0.901028" stop-color="#00A3FF"/>
</radialGradient>
<linearGradient id="paint1_linear_374_1029" x1="65" y1="156.307" x2="185.895" y2="156.058" gradientUnits="userSpaceOnUse">
<stop stop-color="#FF0000"/>
<stop offset="0.37" stop-color="#FFC700"/>
<stop offset="0.695" stop-color="#19DE74"/>
<stop offset="1" stop-color="#00A3FF"/>
</linearGradient>
<linearGradient id="paint2_linear_374_1029" x1="88.7069" y1="74.4706" x2="183.204" y2="82.8245" gradientUnits="userSpaceOnUse">
<stop stop-color="#1E6EA9"/>
<stop offset="0.520833" stop-color="#4BC270"/>
<stop offset="1" stop-color="#FFCB3C"/>
</linearGradient>
</defs>
</svg>
